<?xml version="1.0" encoding="UTF-8"?> <!-- Generator: Adobe Illustrator 18.0.0, SVG Export Plug-In . SVG Version: 6.00 Build 0) --> <svg xmlns="http://www.w3.org/2000/svg" xmlns:xlink="http://www.w3.org/1999/xlink" version="1.1" id="Layer_1" x="0px" y="0px" viewBox="0 0 172.2 219" xml:space="preserve"> <g id="cAKubO_1_"> <g> <path fill="#FFFFFF" d="M107.8,81.2c0-1.9,0.1-3.9,0.1-5.8c-0.1-10.8-0.3-21.6-0.4-32.4c-0.1-7.6-0.1-15.1,0-22.7 c0-3.6,0.3-7.3,0.5-10.9c0.1-1.4,0.6-2.6,1.6-3.6c0.7-0.7,1.3-1.4,1.9-2.2c0.6-0.7,0.9-0.6,1.5,0c2.2,2.5,2.9,5.3,2.8,8.7 c-0.3,17.6-0.4,35.2-0.4,52.8c0,16.6,0.3,33.2,0.4,49.8c0,0.9,0,1.9-0.2,2.7c-0.9,4-4.9,5.4-8.1,2.8c-1.7-1.3-2.4-3.1-2.6-5.2 c-0.8-6.5-1.4-13-2.5-19.4c-1.4-8.4-3.1-16.8-5.3-25.1c-1.8-6.7-2.9-13.6-4.4-20.4c-1.5-6.5-3.1-12.9-4.6-19.4 c-0.1-0.4-0.2-0.7-0.4-1.1c-0.1,0-0.2,0-0.3,0c0,0.4,0,0.9,0,1.3c0.2,14.1,0.2,28.2,0.5,42.2c0.2,7.8,0.7,15.7,1,23.5 c0.1,3.4,0.2,6.7,0.3,10.1c0.1,2.2,0.2,4.4,0.2,6.6c0,0.8-0.1,1.6-0.3,2.4c-0.6,2-2.8,3.5-4.7,3c-2-0.5-4.1-2.3-3.6-4.8 c0.8-3.9,0.4-7.9,0.2-11.8c-0.1-2.6-0.3-5.3-0.4-7.9c-0.1-6.9-0.2-13.8-0.3-20.6c-0.1-12.9-0.1-25.8-0.2-38.8 c-0.1-4.5-0.6-9-0.8-13.5c-0.1-2.5-0.1-5-0.2-7.6c0-1-0.1-2.1-0.3-3.1c-0.5-2.7,0.4-4.6,2.5-5.3c2.9-1,5.7-0.2,6.8,2.3 c1.2,2.8,2.5,5.6,3.4,8.5c2,6.7,3.8,13.5,5.5,20.3c2.9,11.8,5.6,23.6,8.4,35.5c0.6,2.7,1.2,5.4,1.7,8.1c0.1,0.3,0.2,0.7,0.3,1 C107.5,81.2,107.6,81.2,107.8,81.2z"></path> <path fill="#FFFFFF" d="M49.9,111.3c0.2-0.4,0.4-0.7,0.5-1c1.5-4.3,2.6-8.6,3-13.2c0.6-7.1,1.3-14.2,1.8-21.3 c0.2-2.7-0.1-5.5,0.1-8.2c0.8-9.7,0.5-19.3,0.7-29c0.2-9.6,0.8-19.2,1.2-28.8c0.1-2.8,1.5-4.2,4.1-4.1c2.9,0,4.5,1.5,4.5,4.3 c0,3.6-0.3,7.2-0.5,10.8c-0.2,5-0.5,10.1-0.7,15.1c-0.4,7.9-0.8,15.8-1.1,23.7c-0.4,9.6-0.7,19.2-1.3,28.8 c-0.5,7.7-1.2,15.5-3.1,23c-0.6,2.3-1.5,4.5-2.4,6.8c-0.2,0.6-0.6,1.1-1.1,1.6c-2.9,3-9.8,2.3-11.9-1.5c-1.9-3.6-3.1-7.3-3.5-11.3 c-0.9-9.1-2-18.2-2.5-27.3c-0.3-5.3,0.2-10.6,0.4-15.9c0.1-3.4,0.3-6.8,0.3-10.2c0.2-12.9,0.5-25.7,0.7-38.6c0-2.3-0.2-4.6-0.1-7 c0.1-3,2.7-4.6,5.3-3.5c1,0.4,1.7,1.2,1.9,2.3c0.2,0.9,0.3,1.8,0.3,2.7c-0.1,16.4-0.3,32.7-0.5,49.1c-0.1,6.4-0.5,12.9-0.4,19.3 c0.3,8.9,0.7,17.7,2.5,26.5c0.4,2.1,0.9,4.1,1.3,6.2C49.6,110.7,49.8,110.9,49.9,111.3z"></path> <path fill="#FFFFFF" d="M130.2,113.6c0.6-10.7,1-21.5,1.9-32.2c0.7-8.4,1.8-16.8,2.9-25.1c1.4-10.7,2.9-21.4,4.3-32.1 c0.6-4.5,1.2-9,1.8-13.5c0.3-2.4,1.3-4.2,3.4-5.5c0.7-0.4,1.3-1,1.9-1.5c0.6-0.6,1.1-0.4,1.5,0.3c2.2,3.6,3.5,7.4,4.1,11.5 c1.4,10.8,2.7,21.7,4.4,32.4c1.1,7,2.7,13.8,3.8,20.8c2.1,12.8,3.9,25.7,5.9,38.5c0.4,3,0.8,5.9,1.3,8.9c0.3,1.7-0.4,3.1-1.8,4 c-0.9,0.6-1.9,1.2-2.8,1.9c-0.6,0.4-1,0.3-1.4-0.2c-1.6-2-2.5-4.2-2.7-6.8c-0.8-8.9-1.9-17.8-2.9-26.7c-0.3-2.4-0.3-2.4-2.6-2.9 c-4-0.9-8.1-1.2-12.1-0.7c-1.1,0.1-1.6,0.6-1.7,1.8c-0.2,3.4-0.5,6.7-0.6,10.1c-0.2,5.4-0.2,10.9-0.3,16.3c0,1.4-0.1,2.8-0.2,4.2 c-0.2,2.3-1.8,3.8-4.1,4c-3.4,0.2-3.6,0.1-3.6-3.2c0-1.3,0-2.6,0-4C130.4,113.6,130.3,113.6,130.2,113.6z M146.3,28.6 c-0.1,0-0.2,0-0.2,0c-0.1,0.3-0.1,0.6-0.2,0.9c-0.9,6.6-1.7,13.2-2.5,19.9c-1.1,8.6-2.2,17.3-3.3,25.9c-0.2,1.4,0.1,1.6,1.4,1.7 c3.6,0.2,7.3,0.3,10.9,0.5c1.4,0.1,1.5-0.1,1.3-1.5c-0.6-3.1-1.4-6.3-1.8-9.4c-1.7-11.9-3.4-23.7-5.1-35.6 C146.7,30.2,146.5,29.4,146.3,28.6z"></path> <path fill="#FFFFFF" d="M14.9,52.1c-0.1,7.4-0.3,14.7-0.4,22.1c-0.1,7.6-0.4,15.3-0.4,22.9c0,4.7,0.3,9.3,0.4,14 c0,1.1,0.6,1.4,1.6,1.4c2,0,3.9-0.2,5.9,0c2.4,0.3,3.7,1.7,3.9,3.6c0.1,1.6-0.5,2.6-1.9,3.3c-2.5,1.2-5.2,1.6-7.9,1.9 c-1.9,0.1-3.8,0.1-5.6,0c-3.2-0.2-4.8-1.9-4.8-5.1C5.8,105.4,6,94.6,6.2,83.8c0.1-6.6,0.4-13.3,0.5-19.9c0.2-9,0.4-18,0.4-27 C7,28.1,6.6,19.2,6.4,10.3c0-1.1,0.1-2.2,0.3-3.2c0.5-2,2.3-3.3,4.2-3.1c1.6,0.2,3.1,1.8,3.3,3.8c0,0.3,0,0.6,0,1 c0.1,7.4,0.2,14.7,0.3,22.1c0,7.1,0,14.2,0,21.2C14.7,52.1,14.8,52.1,14.9,52.1z"></path> <path fill="#FFFFFF" d="M99,203.7c1.2-0.5,2.4-1,3.6-1.6c2.4-1.3,4.8-2.7,7.3-3.9c0.7-0.4,1.7-0.5,2.5-0.4c1.2,0.1,1.4,1,0.6,1.9 c-0.6,0.7-1.2,1.4-1.8,2.1c0.1,0.1,0.1,0.2,0.2,0.3c0.3,0,0.7,0,1-0.1c2.5-0.7,5.1-1.3,7.5-2.3c1.7-0.7,2.6-2.5,2.6-4.4 c0-1.4,0.7-1.8,1.8-2c1.1-0.2,1.8,0.5,1.3,1.5c-0.3,0.7-0.9,1.3-1.3,2c-0.5,0.7-1,1.3-1.5,2c0.1,0.1,0.2,0.2,0.3,0.3 c0.3-0.2,0.7-0.4,1-0.7c3-2.3,6.2-4.2,9.7-5.6c0.8-0.3,1.7-0.6,2.5-0.6c0.6,0,1.5,0.3,1.8,0.8c0.3,0.5,0.1,1.4-0.2,2 c-0.4,0.9-1.6,0.8-1.9-0.1c-0.3-0.7-0.8-0.8-1.3-0.6c-1.7,0.7-3.5,1.2-5.1,2.1c-3.8,2.1-6.8,5.1-9.8,8.3c-0.5,0.5-0.7,1.2-1.2,1.6 c-0.4,0.3-1,0.3-1.5,0.5c-0.1-0.5-0.5-1.1-0.4-1.5c0.2-0.8,0.7-1.5,1.1-2.2c0.3-0.5,0.6-0.9,1-1.3c-0.1-0.1-0.1-0.2-0.2-0.3 c-0.4,0.1-0.8,0.2-1.1,0.3c-2.1,0.9-4.2,1.8-6.4,2.6c-0.7,0.2-1.8,0.2-2.3-0.2c-0.7-0.6-0.1-1.5,0.4-2.1c0.4-0.5,0.7-1.1,1.1-1.7 c-0.1-0.1-0.1-0.2-0.2-0.3c-0.3,0.1-0.6,0.2-0.9,0.3c-2.3,1.2-4.5,2.5-6.9,3.7c-1.3,0.6-2.7,1.1-4.1,1.5c-1.4,0.4-2-0.6-2.3-1.9 c-0.5,0.2-0.9,0.4-1.4,0.6c-1.2,0.6-2.3,1.4-3.5,1.8c-0.9,0.3-2,0.6-2.9,0.4c-1.9-0.2-2.6-1.2-1.9-2.9c1-2.5,2.1-4.9,3.4-7.2 c1.5-2.6,3.2-5.1,4.8-7.6c0.1-0.2,0.2-0.4,0.3-0.6c-0.1-0.1-0.2-0.1-0.3-0.2c-1.5,1.6-3,3.1-4.6,4.7c-2.9,3-5.8,6-8.7,9.1 c-1.2,1.2-2.3,2.5-3.5,3.6c-0.8,0.7-1.8,1.2-2.8,1.7c-0.4,0.2-1.1,0.2-1.3,0c-0.3-0.3-0.4-1-0.3-1.4c0.2-0.9,0.6-1.7,0.9-2.6 c0.2-0.4,0.3-0.9,0.6-1.6c-0.7,0.3-1.2,0.5-1.6,0.7c-2.3,1.3-4.6,2.6-6.9,3.8c-1.1,0.5-2.3,0.8-3.6,0.9c-1.6,0.1-2.4-1.1-1.8-2.5 c0.6-1.5,1.4-2.9,2.3-4.3c0.9-1.6,2-3.1,3-4.6c0.3-0.4,0.7-0.9,1.2-1.1c0.5-0.2,1.2,0,1.8,0c-0.1,0.6-0.1,1.3-0.4,1.7 c-1.2,1.5-2.7,2.8-3.9,4.4c-0.8,1-1.4,2.2-2,3.4c-0.2,0.3-0.2,1,0,1.2c0.2,0.2,0.9,0.2,1.2,0.1c2.2-0.9,4.4-1.8,6.6-2.9 c1.5-0.7,2.9-1.6,4.2-2.5c0.9-0.7,1.7-1.5,2.4-2.4c2-3.1,4-6.4,5.9-9.6c0.3-0.4,0.4-0.9,0.8-1.7c-1.8,0.3-3.1,0.6-4.5,0.8 c-1,0.1-2,0.3-2.9,0.2c-0.4,0-0.7-0.7-1.1-1c0.3-0.3,0.6-0.8,1-0.8c2.5-0.3,5.1-0.6,7.6-0.8c1-0.1,1.6-0.4,2.2-1.2 c1.5-2.4,3.1-4.9,4.7-7.2c0.3-0.4,1.1-0.9,1.5-0.8c0.8,0.3,0.7,1.1,0.3,1.7c-1.1,1.6-2.2,3.2-3.4,4.8c-0.4,0.6-0.8,1.2-1.4,2.1 c1.1,0,2,0,2.8,0c1.6-0.1,3.3-0.1,4.9-0.3c0.6-0.1,1.2-0.4,1.6-0.8c1-0.9,1.9-2,2.7-3c0.5-0.7,0.9-1.5,1.5-2.2 c0.5-0.6,1-1.3,1.6-1.7c0.4-0.2,1.4-0.1,1.5,0.1c0.2,0.4,0.2,1.3-0.1,1.7c-1.1,1.5-2.3,3-3.4,4.5c-0.2,0.3-0.3,0.7-0.4,1.1 c0.4,0.1,0.7,0.3,1.1,0.4c4.2,0.2,8.4,0.8,12.4,1.9c0.2,0,0.3,0,0.5,0.1c0.3,0.2,0.6,0.5,0.9,0.8c-0.4,0.1-0.8,0.4-1.2,0.3 c-3.3-0.5-6.6-1-9.8-1.4c-1.2-0.2-2.5-0.1-3.7-0.2c-1.2-0.1-2.2,0.3-2.8,1.4c-2.3,3.7-4.6,7.5-7,11.1c-1.2,1.9-2.4,3.7-2.9,6 c-0.3,1.6,0.3,2.2,1.7,1.5c2.6-1.3,5.2-2.7,7.6-4.3c2.2-1.5,4.2-3.4,6.4-4.8c1.4-0.9,3.2-1.5,4.8-2.1c0.8-0.2,1.9-0.4,2.2,0.8 c0.2,0.7-0.8,1.3-2.1,1.4c-0.7,0-1.4,0-2,0.2c-3.2,1.1-5.5,3.3-7.5,5.9c-0.2,0.3-0.3,0.7-0.5,1.1C98.8,203.4,98.9,203.5,99,203.7z M94.4,185.6c-2.7-0.2-5.4-0.3-8,0.6c-0.4,0.2-0.8,0.5-1.1,0.9c-1.2,1.7-2.3,3.5-3.4,5.3c-0.8,1.3-1.7,2.6-2.4,4 c-1.2,2.2-2.4,4.4-3.6,6.6c-0.2,0.4-0.2,0.8-0.3,1.2c0.1,0,0.2,0.1,0.3,0.1C82.5,198.6,88.7,192.4,94.4,185.6z"></path> <path fill="#FFFFFF" d="M15.6,214.4c4.2-0.4,8.5-0.6,12.6-1.3c7-1.2,14-3,20.5-5.9c2-0.9,4-2,5.8-3.3c2.1-1.6,2-3.6-0.2-5.2 c-1.2-0.9-2.5-1.8-3.9-2.4c-3.8-1.8-7.8-3.2-11.6-5.1c-2-1-4.2-1.9-5.4-4.1c-0.3-0.6-0.4-1.5-0.3-2.2c0.4-1.7,1.4-3,2.9-3.8 c3.9-2.2,7.9-4.4,12.5-4.8c0.3,0,0.6-0.2,0.9-0.3c1.3-0.5,3.6,0.1,4.5,1.1c0.5,0.6,0.3,2.1-0.3,2.5c-0.8,0.6-1.2-0.3-1.8-0.6 c-0.9-0.5-1.9-1-2.9-0.9c-3.4,0.1-6.6,1.1-9.6,2.7c-1.5,0.9-3.1,1.6-3.8,3.4c-0.4,0.9-0.4,1.8,0.3,2.3c1.6,1.3,3.2,2.7,5,3.6 c3.1,1.6,6.4,2.7,9.5,4.3c2.1,1,4.2,2.2,6.1,3.6c2.1,1.4,2.2,4.6,0.4,6.3c-1.1,1-2.3,1.9-3.5,2.6c-2.8,1.6-5.5,3.6-8.9,3.7 c0,0-0.1,0-0.1,0c-4.8,1.4-9.6,2.8-14.4,4.1c-1,0.3-2.1,0.3-3.2,0.4c-2.6,0.2-5.2,0.2-7.8,0.5c-2.8,0.3-5.5,0.1-8.2-0.4 c-1.4-0.3-2.9-0.5-4.3-0.9c-2.2-0.7-3.5-2.4-3.9-4.6c-0.1-0.8,0.4-1.9,1-2.5c1.7-1.8,3.5-3.5,5.4-5.1c0.3-0.3,0.8-0.2,1.2-0.4 c-0.1,0.4-0.2,0.9-0.4,1.2c-1.3,1.4-2.7,2.8-4.1,4.1c-1.6,1.5-2,4.2,0.9,5.6C9.4,214.1,12.5,214.2,15.6,214.4z"></path> <path fill="#FFFFFF" d="M149,197.6c-0.7,0.6-1.5,1.3-2.2,1.9c-2.2,1.9-4.4,3.9-6.7,5.6c-0.9,0.7-2.1,1.1-3.3,1.4 c-1.8,0.4-3-1-2.2-2.6c0.6-1.4,1.3-2.8,2.4-3.8c2.3-2.3,4.8-4.6,7.9-5.6c1.1-0.4,2.3-0.4,3.5-0.3c0.8,0.1,1.3,0.1,1.8-0.5 c3.1-3.6,6.2-7.1,9.2-10.7c1.8-2.2,3.4-4.7,5.2-6.9c0.4-0.5,1.5-0.8,2.2-0.6c0.9,0.2,0.5,1.1,0.3,1.8c-0.3,1.1-1.1,1.8-2.1,2.5 c-1.3,0.8-2.5,1.9-3.4,3.2c-3.3,4.6-6.6,9.1-9.6,13.9c-1.4,2.2-2.1,4.8-2.9,7.2c-0.6,1.8,0.3,2.6,2,1.8c2.3-1.1,4.4-2.4,6.5-3.7 c1.5-0.9,2.8-2.1,4.3-3.1c0.1-0.1,0.2-0.2,0.3-0.2c0.4,0,0.8,0,1.2,0c-0.1,0.3-0.2,0.8-0.4,1c-1.8,1.4-3.6,2.8-5.4,4.1 c-2,1.4-4.1,2.8-6.1,4.1c-1.6,1.1-3.9-0.1-3.7-2.1c0.1-2,0.7-4.1,1.1-6.1c0.1-0.7,0.4-1.3,0.6-2 C149.2,197.7,149.1,197.6,149,197.6z M136.9,204.4c0.1,0.1,0.2,0.1,0.3,0.2c0.3-0.1,0.6-0.2,0.9-0.3c3.6-1.9,6.3-4.7,9.1-7.5 c0.3-0.3,0.4-0.8,0.6-1.2c-0.5-0.1-1-0.1-1.4-0.2c-0.2,0-0.4,0.1-0.6,0.2c-3.6,1.1-6,3.6-8.1,6.4 C137.1,202.6,137.1,203.6,136.9,204.4z"></path> <path fill="#FFFFFF" d="M89.2,132.8c1.2,0.1,2.3,0.1,3.5,0.3c2.5,0.6,4.3,2.1,5.1,4.6c0.9,2.8,0.9,5.7-0.4,8.4 c-1.3,2.7-3.7,3.7-6.5,4c-1.4,0.1-2.9,0-4.3,0.1c-0.9,0-1.4-0.5-1.4-1.4c0-4.8,0-9.7,0-14.5c0-0.9,0.5-1.3,1.3-1.3 C87.4,132.8,88.3,132.8,89.2,132.8C89.2,132.8,89.2,132.8,89.2,132.8z M87.3,141.4C87.2,141.4,87.2,141.4,87.3,141.4 c0,1.3,0,2.6,0,3.8c0,3.2,0,3.2,3.3,3c3-0.2,4.8-1.7,5.3-4.7c0.2-1,0.2-2,0.1-3c-0.1-3.6-2-5.6-5.6-5.9c-0.6-0.1-1.1,0-1.7-0.1 c-1-0.1-1.4,0.4-1.4,1.4C87.3,137.8,87.3,139.6,87.3,141.4z"></path> <path fill="#FFFFFF" d="M5.4,141.4c0-2.3,0-4.6,0-6.8c0-1.4,0.3-1.7,1.7-1.7c2.1,0,4.2-0.1,6.2,0c0.5,0,1.3,0.5,1.3,0.8 c0.1,0.9-0.7,0.9-1.4,0.9c-1.4,0-2.9,0-4.3,0c-0.9,0-1.4,0.4-1.4,1.4c0,1,0,1.9,0,2.9c0,0.9,0.4,1.3,1.3,1.3c1.2,0,2.4,0,3.6,0 c0.6,0,1.3,0.1,1.3,0.9c0,0.8-0.7,0.9-1.3,0.9c-1.2,0-2.4,0-3.6,0c-0.9,0-1.3,0.5-1.3,1.3c0,1.2,0,2.4,0,3.6 c0,0.9,0.4,1.4,1.4,1.4c1.5,0,3,0,4.4,0c0.7,0,1.5,0,1.5,0.9c0,0.9-0.8,0.9-1.4,0.9c-2.2,0-4.3,0-6.5,0c-1.1,0-1.6-0.5-1.6-1.6 C5.4,146.1,5.4,143.8,5.4,141.4C5.4,141.4,5.4,141.4,5.4,141.4z"></path> <path fill="#FFFFFF" d="M76.3,138.5c-1,1.2-2,2.5-2.9,3.7c-0.2,0.2-0.4,0.5-0.6,0.8c-1.3,1.8-1.3,1.9,0.8,2.9 c0.3,0.1,0.5,0.5,0.7,0.8c-0.4,0.1-0.7,0.2-1.1,0.2c-0.1,0-0.2-0.1-0.3-0.1c-1.8-1.3-3.2-0.7-4.6,0.8c-0.8,0.9-1.9,1.7-2.9,2.5 c-1.4,1-2.9,1.3-4.5,0.7c-1-0.3-1.4-1-1-2c0.4-0.9,0.8-1.8,1.3-2.7c1.3-2.2,2.5-4.3,3.8-6.5c0.8-1.3,0.8-2.7,0.8-4.3 c-0.1-1.8,0.2-3.6,0.4-5.3c0-0.4,0.5-0.7,0.7-1c0.4,0.3,1,0.6,1.1,1c0.2,0.7,0.3,1.5,0.2,2.2c-0.1,0.9-0.4,1.7-0.6,2.6 c-0.1,0.7-0.3,1.5-0.1,2.1c0.6,1.8,1.2,3.6,2,5.2c0.6,1.3,1.2,1.4,2.3,0.3c1.1-1.1,2.2-2.2,3.3-3.3c0.3-0.3,0.7-0.6,1.1-0.9 C76.2,138.4,76.3,138.4,76.3,138.5z M62.4,149.8c0.8-0.3,1.3-0.3,1.7-0.6c1.7-1.4,3.4-2.9,5-4.4c0.2-0.2,0.1-0.8-0.1-1.2 c-0.5-1-1-1.9-1.5-2.8c-0.5-1-0.8-1-1.4-0.1c-1.2,1.9-2.4,3.9-3.5,5.8c-0.4,0.6-0.6,1.3-0.7,2C61.7,149,62.2,149.4,62.4,149.8z"></path> <path fill="#FFFFFF" d="M134.5,143.6c0,1,0,2,0,3c0,0.8,0.1,1.7-0.1,2.5c-0.1,0.4-0.6,0.8-1,0.9c-0.3,0-0.7-0.4-0.9-0.8 c-0.2-0.3-0.1-0.7-0.1-1.1c0-4.9,0-9.8,0-14.8c0-0.3-0.1-0.6,0-0.8c0.3-0.4,0.7-0.7,1-1.1c0.3,0.4,1,0.7,1,1.1 c0.1,1.3,0.1,2.7,0.1,4.1c0,1.9,0,3.7,0,5.6c0.1,0,0.2,0.1,0.3,0.1c0.3-0.3,0.7-0.6,1-0.9c1-1.1,2-2.2,3-3.3 c0.8-0.8,1.6-1,2.9-0.4c-0.9,0.9-1.6,1.7-2.3,2.4c-3.1,3.2-2.6,2.1-0.4,5.3c0.8,1.1,1.7,2.2,2.6,3.3c0.2,0.3,0.2,0.6,0.3,1 c-0.4,0.1-0.8,0.4-1.1,0.3c-0.6-0.2-1.2-0.6-1.6-1c-1.3-1.5-2.4-3.2-3.6-4.8c-0.2-0.3-0.4-0.5-0.7-0.7 C134.7,143.6,134.6,143.6,134.5,143.6z"></path> <path fill="#FFFFFF" d="M32.9,144.1c-1,0-2.1,0-3.1,0c-0.7,0-1.1,0.4-1,1.1c0.1,1.6,1.1,3,2.7,3.2c1.3,0.1,2.7-0.2,4-0.3 c0.4,0,0.8,0.1,1.3,0.1c-0.2,0.5-0.3,1.1-0.7,1.3c-4.1,2.5-9.2-0.1-9.6-4.8c-0.1-1.7,0-3.4,0.9-5c1.3-2.2,4-3.2,6.7-2.4 c2.2,0.7,3.6,2.9,3.4,5.3c-0.1,0.8-0.4,1.4-1.3,1.4C35,144.1,33.9,144.1,32.9,144.1C32.9,144.1,32.9,144.1,32.9,144.1z M31.9,142.7C31.9,142.7,31.9,142.7,31.9,142.7c0.6,0,1.2,0,1.8,0c0.1,0,0.2,0,0.2,0c1.2-0.1,1.5-0.5,1.2-1.6 c-0.3-1.3-1.3-2.1-2.8-2.2c-1.7-0.1-2.9,0.7-3.4,2.3c-0.4,1.1-0.2,1.5,1,1.6C30.6,142.7,31.2,142.7,31.9,142.7z"></path> <path fill="#FFFFFF" d="M149.6,144.1c-1,0-2.1,0-3.1,0c-0.9,0-1.2,0.5-1.1,1.3c0.2,1.6,1.1,2.8,2.6,3c1.3,0.1,2.7-0.2,4.1-0.3 c0.4,0,0.8,0.1,1.2,0.2c-0.2,0.4-0.3,1.1-0.6,1.2c-2.3,1-4.7,1.2-6.9,0c-2.1-1.1-2.8-3.2-2.7-5.4c0-1.4,0.3-2.8,0.8-4.1 c0.9-2.1,2.7-3,5-3c2,0,3.6,0.8,4.6,2.7c0,0.1,0.1,0.1,0.1,0.2c1.3,3,0.6,4-2.6,4C150.5,144.1,150.1,144.1,149.6,144.1 C149.6,144.1,149.6,144.1,149.6,144.1z M148.6,142.6c0.8,0,1.5,0,2.3,0c0.8,0,1-0.4,0.9-1.2c-0.2-1.6-1.4-2.7-3.1-2.6 c-1.8,0-3.3,1.3-3.3,2.8c0,0.3,0.5,0.9,0.9,0.9C147.1,142.8,147.9,142.7,148.6,142.6z"></path> <path fill="#FFFFFF" d="M160.3,138.8c0.1-0.1,0.5-0.4,0.9-0.7c2.7-2,6.4-0.7,6.7,2.6c0.3,2.8,0.2,5.6,0.1,8.4c0,0.3-0.7,0.6-1.1,1 c-0.3-0.4-0.9-0.7-0.9-1.1c-0.1-2,0-3.9-0.1-5.9c0-0.7,0-1.4-0.2-2c-0.4-1.9-1.9-2.6-3.7-1.7c-1.4,0.7-2.3,1.7-2.2,3.4 c0.1,2,0,4,0,6c0,0.7-0.1,1.3-1,1.4c-0.9,0-1.1-0.6-1.1-1.4c0-3.2,0-6.3,0-9.5c0-0.7-0.2-1.7,0.8-1.7 C159.1,137.5,159.6,138.2,160.3,138.8z"></path> <path fill="#FFFFFF" d="M43.3,138.8c0.1-0.1,0.4-0.4,0.8-0.6c1.4-1.1,2.9-1.3,4.5-0.7c1.6,0.6,2.5,2,2.5,3.6 c0.1,2.6,0.1,5.3,0,7.9c0,0.4-0.6,0.9-1,1.1c-0.7,0.2-1.1-0.4-1.1-1.1c0-1.9,0-3.8,0-5.7c0-0.8,0-1.5-0.2-2.3 c-0.4-1.8-2.1-2.5-3.7-1.6c-1.3,0.7-2.2,1.7-2.2,3.4c0.1,2,0,4,0,6c0,0.8-0.2,1.4-1.1,1.4c-0.9,0-1-0.6-1-1.3c0-3.2,0-6.3,0-9.5 c0-0.7-0.2-1.7,0.9-1.8C42.2,137.5,42.7,138.3,43.3,138.8z"></path> <path fill="#FFFFFF" d="M120.2,138.8c0.1,0,0.4-0.3,0.7-0.6c1.4-1.1,2.9-1.3,4.5-0.7c1.6,0.6,2.4,2,2.5,3.6c0.1,2.6,0.1,5.3,0,7.9 c0,0.4-0.6,0.9-1,1.1c-0.7,0.2-1.1-0.4-1.1-1.1c0-1.9,0-3.8,0-5.7c0-0.8,0-1.5-0.2-2.3c-0.4-1.8-2.1-2.5-3.7-1.6 c-1.3,0.7-2.2,1.7-2.2,3.4c0.1,2,0,4,0,6c0,0.8-0.2,1.4-1.1,1.4c-0.9,0-1-0.7-1-1.3c0-3.2,0-6.3,0-9.5c0-0.7-0.2-1.7,0.7-1.7 C119,137.5,119.5,138.3,120.2,138.8z"></path> <path fill="#FFFFFF" d="M18.9,143.7c0-1,0-2.1,0-3.1c0-0.8-0.2-1.4-1.1-1.5c-0.3-0.1-0.6-0.5-0.9-0.8c0.3-0.3,0.5-0.8,0.8-0.8 c1-0.1,1.3-0.7,1.2-1.6c0-0.3-0.1-0.7,0.1-0.9c0.2-0.3,0.6-0.8,1-0.8c0.3,0,0.7,0.4,1,0.8c0.1,0.1,0.1,0.5,0.1,0.7 c0.1,1.7,0.1,1.7,1.8,1.8c0.2,0,0.4-0.1,0.6,0c0.4,0.2,0.7,0.5,1,0.8c-0.4,0.3-0.7,0.7-1.1,0.8c-0.3,0.1-0.7,0.1-1.1,0.1 c-0.9,0-1.3,0.4-1.3,1.3c0,2,0,3.9,0,5.9c0.1,1.8,0.6,2.2,2.4,2.1c0.3,0,0.7,0.3,1,0.5c-0.2,0.4-0.4,0.9-0.7,1.1 c-2.1,1.1-4.6-0.3-4.8-2.6C18.8,146.2,18.9,144.9,18.9,143.7C18.9,143.7,18.9,143.7,18.9,143.7z"></path> <path fill="#FFFFFF" d="M104.3,138.8c0.1-0.1,0.5-0.5,0.8-0.8c0.8-0.8,1.8-1.1,2.9-0.7c0.4,0.2,0.5,0.9,0.8,1.4 c-0.4,0.2-0.8,0.5-1.1,0.4c-1.8-0.1-3.5,1.4-3.6,3.4c-0.1,2,0,4,0,6c0,0.7,0,1.5-1.1,1.5c-1.1,0-1.1-0.8-1.1-1.5 c0-3.1,0-6.2,0-9.2c0-0.7-0.3-1.7,0.8-1.8C103.2,137.5,103.7,138.3,104.3,138.8z"></path> <path fill="#FFFFFF" d="M113.6,143.7c0,1.7,0,3.3,0,5c0,0.7-0.1,1.3-1,1.3c-1,0-1.1-0.6-1.1-1.4c0-3.3,0-6.7,0-10 c0-0.6,0-1.3,0.9-1.3c0.9,0,1.2,0.5,1.2,1.3C113.6,140.4,113.6,142.1,113.6,143.7C113.6,143.7,113.6,143.7,113.6,143.7z"></path> <path fill="#FFFFFF" d="M69.3,190.5c0.2-0.6,0.3-1.3,0.6-1.8c0.8-1.1,1.6-2,2.5-3c0.2-0.2,1-0.3,1.3,0c0.3,0.3,0.3,0.9,0.4,1.3 c0,0.2-0.2,0.6-0.4,0.7c-1.3,1-2.6,2-4,2.9C69.6,190.6,69.5,190.5,69.3,190.5z"></path> <path fill="#FFFFFF" d="M112.7,135c-1-0.2-1.5-0.6-1.5-1.4c0-0.8,0.5-1.2,1.3-1.2c0.8,0,1.3,0.4,1.2,1.2 C113.6,134.1,113.1,134.5,112.7,135z"></path> <path fill="none" d="M146.3,28.6c0.2,0.8,0.3,1.6,0.4,2.4c1.7,11.9,3.3,23.7,5.1,35.6c0.5,3.2,1.2,6.3,1.8,9.4 c0.3,1.4,0.2,1.5-1.3,1.5c-3.6-0.2-7.3-0.3-10.9-0.5c-1.4-0.1-1.6-0.3-1.4-1.7c1.1-8.6,2.2-17.3,3.3-25.9 c0.8-6.6,1.7-13.2,2.5-19.9c0-0.3,0.1-0.6,0.2-0.9C146.2,28.6,146.3,28.6,146.3,28.6z"></path> <path fill="none" d="M94.4,185.6c-5.6,6.9-11.8,13.1-18.4,18.8c-0.1,0-0.2-0.1-0.3-0.1c0.1-0.4,0.1-0.9,0.3-1.2 c1.2-2.2,2.4-4.4,3.6-6.6c0.8-1.4,1.6-2.7,2.4-4c1.1-1.8,2.2-3.5,3.4-5.3c0.3-0.4,0.6-0.8,1.1-0.9C89,185.2,91.6,185.4,94.4,185.6 z"></path> <path fill="none" d="M136.9,204.4c0.2-0.8,0.3-1.8,0.8-2.4c2.2-2.8,4.5-5.4,8.1-6.4c0.2-0.1,0.4-0.2,0.6-0.2c0.5,0,1,0.1,1.4,0.2 c-0.2,0.4-0.3,0.9-0.6,1.2c-2.8,2.8-5.5,5.6-9.1,7.5c-0.3,0.1-0.6,0.2-0.9,0.3C137.1,204.5,137,204.5,136.9,204.4z"></path> <path fill="none" d="M87.3,141.4c0-1.8,0-3.6,0-5.4c0-1,0.4-1.5,1.4-1.4c0.6,0,1.1,0,1.7,0.1c3.6,0.3,5.5,2.3,5.6,5.9 c0,1,0,2-0.1,3c-0.5,3-2.3,4.5-5.3,4.7c-3.3,0.2-3.3,0.2-3.3-3C87.2,143.9,87.2,142.6,87.3,141.4 C87.2,141.4,87.2,141.4,87.3,141.4z"></path> <path fill="none" d="M62.4,149.8c-0.2-0.4-0.6-0.8-0.6-1.2c0.1-0.7,0.3-1.4,0.7-2c1.1-2,2.3-3.9,3.5-5.8c0.6-1,0.9-0.9,1.4,0.1 c0.5,1,1.1,1.9,1.5,2.8c0.2,0.3,0.3,1,0.1,1.2c-1.6,1.5-3.3,3-5,4.4C63.7,149.5,63.1,149.5,62.4,149.8z"></path> <path fill="none" d="M31.9,142.7c-0.6,0-1.3,0-1.9,0c-1.2-0.1-1.4-0.4-1-1.6c0.5-1.6,1.7-2.4,3.4-2.3c1.5,0.1,2.5,0.9,2.8,2.2 c0.3,1.2,0,1.6-1.2,1.6c-0.1,0-0.2,0-0.2,0C33.1,142.7,32.5,142.7,31.9,142.7C31.9,142.7,31.9,142.7,31.9,142.7z"></path> <path fill="none" d="M148.6,142.7c-0.8,0-1.5,0.1-2.3,0c-0.4-0.1-0.9-0.6-0.9-0.9c0-1.6,1.5-2.8,3.3-2.8c1.8,0,3,1,3.1,2.6 c0.1,0.7-0.2,1.2-0.9,1.2C150.1,142.7,149.4,142.6,148.6,142.7z"></path> </g> </g> </svg> 